:FULLY-SPECIFIED
:FORCE-ALL-JOINTS-BE-3DOF
:DEGREES
306
root -0.0186063 15.3761 -36.0729 58.241 53.1775 51.1153
lfemur -21.9237 20.836 -17.3592
ltibia 66.3096 0 0
lfoot -27.2653 30.0733 0
ltoes 4.78741 0 0
rfemur -37.3186 -11.2496 8.68146
rtibia 46.3422 0 0
rfoot -1.92815 -9.28349 0
rtoes -10.924 0 0
lowerback 14.5146 1.36702 -0.793105
upperback -2.69719 1.92602 2.72724
thorax -11.0191 1.01811 3.00204
lowerneck -5.67223 4.55727 1.21733
upperneck 5.70455 6.51857 -6.2435
head 3.41527 3.06729 -1.7166
lclavicle -3.44099e-14 -1.98294e-14 0
lhumerus -28.7206 -28.4815 91.2787
lradius 111.131 0 0
lwrist 43.1903 0 0
lhand -20.1528 49.2286 0
lfingers 7.12502 0 0
lthumb 6.19248 79.1268 0
rclavicle -3.44099e-14 -1.98294e-14 0
rhumerus -14.1324 33.5671 -86.1492
rradius 86.4558 0 0
rwrist -28.0928 0 0
rhand 25.9612 -24.1785 0
rfingers 7.12502 0 0
rthumb 49.1643 -39.0395 0
307
root 0.112552 15.3605 -36.0234 61.725 54.7531 55.1549
lfemur -20.6957 19.7761 -17.3912
ltibia 65.3586 0 0
lfoot -27.3796 29.9409 0
ltoes 3.93089 0 0
rfemur -37.6601 -10.4467 8.06808
rtibia 45.3331 0 0
rfoot -0.442386 -8.48288 0
rtoes -9.33036 0 0
lowerback 14.5796 1.33035 -1.27019
upperback -2.61737 1.78239 2.68486
thorax -10.9692 0.975885 3.2593
lowerneck -5.72251 4.07057 0.887514
upperneck 5.80421 5.87451 -5.92817
head 3.43508 2.75029 -1.59801
lclavicle -3.26233e-14 -1.95298e-14 0
lhumerus -29.7545 -28.8051 92.9382
lradius 110.41 0 0
lwrist 43.7634 0 0
lhand -20.3252 48.754 0
lfingers 7.12502 0 0
lthumb 6.02605 78.6571 0
rclavicle -3.26233e-14 -1.95298e-14 0
rhumerus -11.3889 32.6402 -85.2598
rradius 84.7874 0 0
rwrist -26.5391 0 0
rhand 24.254 -24.5953 0
rfingers 7.12502 0 0
rthumb 47.5939 -40.1847 0
308
root 0.243711 15.3449 -35.9739 65.2297 56.3239 59.2182
lfemur -19.4548 18.7015 -17.4191
ltibia 64.3897 0 0
lfoot -27.4925 29.7994 0
ltoes 3.05984 0 0
rfemur -38.0051 -9.63992 7.4534
rtibia 44.3278 0 0
rfoot 1.03968 -7.66976 0
rtoes -7.72426 0 0
lowerback 14.6416 1.29451 -1.75216
upperback -2.53735 1.63903 2.64092
thorax -10.9176 0.934043 3.51764
lowerneck -5.77171 3.57611 0.551849
upperneck 5.90462 5.21983 -5.60487
head 3.45494 2.42813 -1.47652
lclavicle -3.08037e-14 -1.92094e-14 0
lhumerus -30.8016 -29.1203 94.6079
lradius 109.656 0 0
lwrist 44.3176 0 0
lhand -20.4993 48.27 0
lfingers 7.12502 0 0
lthumb 5.85805 78.1778 0
rclavicle -3.08037e-14 -1.92094e-14 0
rhumerus -8.62455 31.6904 -84.3588
rradius 83.079 0 0
rwrist -24.9571 0 0
rhand 22.5139 -25.0168 0
rfingers 7.12502 0 0
rthumb 45.9929 -41.346 0
309
root 0.374869 15.3292 -35.9245 68.7462 57.886 63.2943
lfemur -18.2045 17.6159 -17.4427
ltibia 63.406 0 0
lfoot -27.6037 29.6506 0
ltoes 2.17732 0 0
rfemur -38.3537 -8.83263 6.83958
rtibia 43.331 0 0
rfoot 2.51284 -6.84696 0
rtoes -6.11149 0 0
lowerback 14.7005 1.25975 -2.23745
upperback -2.4574 1.49658 2.5955
thorax -10.8647 0.8928 3.77611
lowerneck -5.81944 3.07551 0.211438
upperneck 6.00519 4.55667 -5.27473
head 3.47473 2.10184 -1.35254
lclavicle -2.89581e-14 -1.88682e-14 0
lhumerus -31.8591 -29.4264 96.2817
lradius 108.875 0 0
lwrist 44.8534 0 0
lhand -20.6737 47.7788 0
lfingers 7.12502 0 0
lthumb 5.68963 77.6913 0
rclavicle -2.89581e-14 -1.88682e-14 0
rhumerus -5.84744 30.7213 -83.4491
rradius 81.3369 0 0
rwrist -23.3526 0 0
rhand 20.7478 -25.4417 0
rfingers 7.12502 0 0
rthumb 44.3676 -42.5192 0
310
root 0.506028 15.3136 -35.875 72.2658 59.4359 67.3723
lfemur -16.9486 16.5234 -17.4621
ltibia 62.4107 0 0
lfoot -27.7125 29.496 0
ltoes 1.2864 0 0
rfemur -38.7057 -8.02819 6.22879
rtibia 42.3473 0 0
rfoot 3.97189 -6.01732 0
rtoes -4.49777 0 0
lowerback 14.7562 1.22629 -2.72448
upperback -2.37779 1.35569 2.54867
thorax -10.8106 0.85237 4.03377
lowerneck -5.86533 2.5704 -0.132615
upperneck 6.10534 3.88717 -4.93882
head 3.49431 1.77248 -1.22648
lclavicle -2.70934e-14 -1.85066e-14 0
lhumerus -32.9244 -29.723 97.9538
lradius 108.071 0 0
lwrist 45.3714 0 0
lhand -20.8475 47.2827 0
lfingers 7.12502 0 0
lthumb 5.52191 77.1998 0
rclavicle -2.70934e-14 -1.85066e-14 0
rhumerus -3.06584 29.7362 -82.5336
rradius 79.5678 0 0
rwrist -21.7312 0 0
rhand 18.9623 -25.8686 0
rfingers 7.12502 0 0
rthumb 42.7241 -43.6998 0
311
root 0.637186 15.298 -35.8255 75.7798 60.9696 71.4412
lfemur -15.6907 15.4277 -17.4773
ltibia 61.407 0 0
lfoot -27.8187 29.3372 0
ltoes 0.390157 0 0
rfemur -39.0612 -7.22999 5.62321
rtibia 41.3814 0 0
rfoot 5.41161 -5.18367 0
rtoes -2.88886 0 0
lowerback 14.8084 1.19437 -3.21169
upperback -2.29879 1.21699 2.50053
thorax -10.7556 0.81297 4.28967
lowerneck -5.909 2.06237 -0.479203
upperneck 6.20448 3.21346 -4.59826
head 3.51355 1.44109 -1.09876
lclavicle -2.52165e-14 -1.81246e-14 0
lhumerus -33.9945 -30.0094 99.6181
lradius 107.251 0 0
lwrist 45.8721 0 0
lhand -21.0193 46.784 0
lfingers 7.12502 0 0
lthumb 5.35605 76.7056 0
rclavicle -2.52165e-14 -1.81246e-14 0
rhumerus -0.287963 28.7388 -81.6155
rradius 77.7779 0 0
rwrist -20.0985 0 0
rhand 17.1642 -26.296 0
rfingers 7.12502 0 0
rthumb 41.0688 -44.8836 0
